<?xml version="1.0" encoding="UTF-8"?>
<svg width="448px" height="120px" viewBox="0 0 448 120" version="1.1" xmlns="http://www.w3.org/2000/svg" xmlns:xlink="http://www.w3.org/1999/xlink">
    <!-- Generator: Sketch 43.1 (39012) - http://www.bohemiancoding.com/sketch -->
    <title>Group</title>
    <desc>Created with Sketch.</desc>
    <defs></defs>
    <g id="Page-1" stroke="none" stroke-width="1" fill="none" fill-rule="evenodd">
        <g id="Group" fill="#FFFFFF">
            <g id="Untitled" transform="translate(224.000000, 17.000000)" stroke-opacity="0" stroke="#000000" stroke-linecap="square">
                <path d="M68.0820472,14.7726867 C67.8333443,17.1854662 67.1342981,19.3000403 65.9849086,21.116409 C64.8355191,22.9327776 63.3727239,24.512674 61.5965229,25.8560984 C59.820322,27.1995227 57.7907599,28.319767 55.5078366,29.2168313 C53.2249132,30.1138956 50.8272934,30.8327578 48.3149771,31.3734178 C45.8026608,31.9140779 43.2356925,32.289828 40.6140723,32.5006682 C37.992452,32.7115083 35.4548445,32.8024164 33.0012497,32.7733924 L33.0945133,31.8686001 C35.8539162,31.314087 38.7305878,30.5156144 41.7245281,29.4731823 C44.7184684,28.4307502 47.4717895,27.140824 49.9844914,25.6034038 C52.4971933,24.0659835 54.6280207,22.2612245 56.3769737,20.1891267 C58.1259266,18.1170288 59.1368442,15.7573022 59.4097265,13.1099469 C59.7067883,10.2280158 58.9891747,7.85553104 57.2568856,5.99249267 C55.5245965,4.12945429 52.8718146,3.05377782 49.2985397,2.76546324 C46.4967674,2.5393984 43.678165,2.67521311 40.8427326,3.17290735 C38.0073002,3.67060159 35.2643233,4.46296677 32.6138018,5.55000288 C29.9632802,6.637039 27.4620158,7.96419748 25.1100083,9.53147832 C22.7580009,11.0987592 20.6839751,12.8489696 18.8879309,14.7821097 C17.0918867,16.7152498 15.6204744,18.7759518 14.4736941,20.9642159 C13.3269137,23.1524799 12.6343534,25.4027354 12.3960131,27.7149825 C12.1369476,30.2282945 12.527991,32.5913243 13.5691432,34.8040717 C14.6102955,37.0168192 16.0613784,39.0261157 17.9223921,40.8319613 C19.7834058,42.637807 21.9554273,44.2068778 24.4384567,45.5391738 C26.9214861,46.8714699 29.4736182,47.9305779 32.0948528,48.7164979 L32.0015892,49.6212902 C30.6573119,49.9520893 29.2162798,50.4271345 27.678493,51.0464258 C26.1407061,51.6657171 24.5806783,52.4014773 22.9984093,53.2537062 C21.4161403,54.1059352 19.8826898,55.0803665 18.3980575,56.1770001 C16.9134253,57.2736338 15.5741549,58.4495752 14.3802464,59.7048245 C13.1863378,60.9600737 12.1995627,62.2911674 11.419921,63.6981057 C10.6402794,65.105044 10.1727389,66.5625068 10.0172996,68.070494 C9.61661163,71.9577499 10.4800466,75.0008964 12.6076044,77.1999334 C14.7351623,79.3989703 18.1540542,80.6885144 22.8642802,81.0685654 C25.5036309,81.281525 28.0615411,81.1922551 30.5380108,80.8007556 C33.0144805,80.4092561 35.3544352,79.7533202 37.5578748,78.8329478 C39.7613144,77.9125755 41.815497,76.7520808 43.7204225,75.3514638 C45.6253481,73.9508467 47.324215,72.3646559 48.8170232,70.5928912 L49.5777406,70.9583766 C48.232692,73.2826959 46.4124684,75.4504118 44.1170698,77.4615242 C41.8216711,79.4726365 39.2290629,81.1894518 36.3392453,82.6119701 C33.4494276,84.0344884 30.3412318,85.0930438 27.0146579,85.7876364 C23.688084,86.4822289 20.3193705,86.6919205 16.9085172,86.4167112 C14.2691664,86.2037515 11.8656576,85.6888206 9.69799078,84.8719182 C7.53032392,84.0550159 5.6982854,82.9610884 4.20187521,81.5901357 C2.70546502,80.2191831 1.584425,78.5828592 0.838755162,76.6811642 C0.0930853243,74.7794692 -0.155398148,72.6222319 0.0933047441,70.2094524 C0.587256322,65.4174041 2.74735217,61.3426604 6.57359228,57.9852214 C10.3998324,54.6277823 15.8481572,52.0178824 22.9185666,50.1555216 C19.5077133,49.8803122 16.4480323,49.177279 13.7395236,48.0464218 C11.0310148,46.9155646 8.75726852,45.4396546 6.91828465,43.6186917 C5.07930078,41.7977288 3.73080614,39.6868938 2.87280071,37.2861866 C2.01479529,34.8854794 1.73086927,32.277671 2.02102264,29.4627616 C2.3042676,26.7148737 3.1931393,24.0496413 4.68763773,21.4670642 C6.18213616,18.8844871 8.12135557,16.4560563 10.505296,14.1817718 C12.8892364,11.9074873 15.6196272,9.84699902 18.6964684,8.00030704 C21.7733097,6.15361506 25.0449834,4.60140706 28.5114896,3.34368305 C31.9779958,2.08595904 35.5529424,1.16643264 39.2363293,0.58510387 C42.9197162,0.00377509768 46.5277444,-0.144370151 50.0604139,0.140668124 C52.6591593,0.350351453 55.1127725,0.776403958 57.4212537,1.41882564 C59.7297349,2.06124732 61.7144662,2.96475784 63.3754476,4.1293572 C65.036429,5.29395656 66.2982834,6.75579977 67.1610106,8.51488682 C68.0237379,10.2739739 68.3307501,12.3599072 68.0820472,14.7726867 Z M95.8002028,68.2003086 C94.2728524,70.3071816 92.2651273,71.9106887 89.7770274,73.01083 C87.2889274,74.1109713 84.5424778,74.5398188 81.5376785,74.2973725 C79.0607493,74.097518 76.9116581,73.2990093 75.0904047,71.9018462 C73.2691514,70.5046831 71.7211024,68.7409842 70.4462578,66.6107496 C69.1714133,64.4805149 68.1466685,62.108591 67.3720236,59.4949779 C66.5973786,56.8813648 66.0097756,54.2406065 65.6092147,51.572703 C65.2086538,48.9047995 64.9813181,46.3437941 64.9272077,43.8896869 C64.8730972,41.4355797 64.9393055,39.3037338 65.1258327,37.4941491 C65.3538103,35.2824345 65.7463592,32.8643666 66.3034793,30.2399454 C66.8605995,27.6155242 67.6030345,24.9807132 68.5307845,22.3355125 C69.4585345,19.6903117 70.5713881,17.1360728 71.8693455,14.6727956 C73.1673028,12.2095185 74.6583655,10.0574807 76.3425335,8.21668239 C78.0267016,6.37588403 79.9046273,4.93929893 81.9763107,3.90692706 C84.047994,2.8745552 86.342603,2.45993464 88.8601375,2.66306536 C91.0122235,2.83670937 92.7047154,3.49700817 93.937613,4.64396178 C95.1705107,5.79091538 96.0941276,7.15788836 96.7084637,8.74488073 C97.3227998,10.3318731 97.6738531,11.9905433 97.7616236,13.7208915 C97.8493942,15.4512396 97.8241953,16.9866302 97.686027,18.3270633 C97.3129727,21.9462326 96.4282444,25.4649851 95.0318422,28.8833209 C93.63544,32.3016566 91.8740117,35.4878025 89.7475575,38.4417585 C87.6211032,41.3957146 85.2093179,44.0394372 82.5122015,46.3729266 C79.8150851,48.7064159 76.9775585,50.6146542 73.9996216,52.0976415 C74.3366653,54.3887352 74.7914187,56.6301947 75.3638818,58.8220201 C75.9363449,61.0138455 76.7055603,62.9850194 77.6715282,64.7355418 C78.637496,66.4860642 79.8088518,67.932158 81.1855954,69.0738232 C82.5623391,70.2154885 84.2049377,70.8633142 86.1133913,71.0173004 C88.021845,71.1712866 89.6991785,70.985624 91.1453919,70.4603125 C92.5916053,69.9350011 93.967393,69.0999014 95.2727552,67.9550136 L95.8002028,68.2003086 Z M73.9029364,35.1612836 C73.7863385,35.8952455 73.6829235,36.7992188 73.5926916,37.8732034 C73.5024597,38.947188 73.441607,40.1333591 73.4101335,41.4317167 C73.37866,42.7300743 73.3884442,44.124682 73.4394861,45.6155399 C73.490528,47.1063978 73.5990238,48.635681 73.7649734,50.2033895 C76.6927874,48.4122521 79.2369997,46.3705313 81.3976104,44.0782271 C83.5582211,41.785923 85.3935477,39.273083 86.90359,36.5397071 C88.4136324,33.8063313 89.6042242,30.8951273 90.4753654,27.8060951 C91.3465066,24.7170628 91.9565146,21.4802499 92.3053895,18.0956564 C92.3502942,17.6600157 92.3988643,17.0895125 92.4511,16.384147 C92.5033356,15.6787815 92.5099958,14.9190543 92.4710806,14.1049656 C92.4321654,13.2908768 92.3424934,12.4726927 92.2020647,11.6504132 C92.061636,10.8281337 91.8322245,10.0747009 91.5138303,9.39011495 C91.1954361,8.70552895 90.7634386,8.1300401 90.217838,7.66364838 C89.6722373,7.19725667 88.993383,6.93129779 88.1812751,6.86577175 C86.63827,6.74127227 85.2233742,7.26066323 83.9365877,8.42394464 C82.6498011,9.58722604 81.4900306,11.1070986 80.4572759,12.9835624 C79.4245213,14.8600262 78.5131604,16.949022 77.723193,19.2505498 C76.9332257,21.5520776 76.2644223,23.7704605 75.7167828,25.9056984 C75.1691433,28.0409363 74.7463331,29.9581669 74.4483524,31.6573902 C74.1503717,33.3566134 73.9685663,34.5245779 73.9029364,35.1612836 Z M134.038745,69.6130558 C132.851745,70.8012834 131.460202,71.8885333 129.864116,72.8748056 C128.26803,73.8610779 126.545369,74.6850844 124.696134,75.3468251 C122.846898,76.0085658 120.933723,76.4961997 118.956607,76.809727 C116.979492,77.1232542 115.016405,77.2013866 113.067346,77.0441241 C110.306179,76.8213355 107.757961,76.3200706 105.422691,75.5403293 C103.087421,74.7605881 101.088643,73.6954439 99.4263574,72.3448968 C97.7640714,70.9943498 96.5194881,69.3649524 95.6926075,67.4567048 C94.8657269,65.5484572 94.5783651,63.3711882 94.8305222,60.9248978 C95.0792251,58.5121183 95.849542,56.3019262 97.1414729,54.2943215 C98.4334038,52.2867168 100.103755,50.5799618 102.152527,49.1740563 C104.201298,47.7681509 106.551386,46.7160056 109.202789,46.0176203 C111.854193,45.319235 114.641689,45.0879892 117.565277,45.3238829 C118.945861,45.4352772 120.218675,45.6984762 121.383719,46.11348 C122.548763,46.5284838 123.545993,47.0820001 124.375409,47.7740291 C125.204825,48.466058 125.826685,49.2849455 126.240989,50.2306916 C126.655293,51.1764377 126.801996,52.2357503 126.681099,53.4086292 C126.536022,54.8160839 126.06307,56.028136 125.262244,57.0447853 C124.461418,58.0614346 123.451078,58.926021 122.231226,59.6385444 C121.011374,60.3510678 119.653069,60.9172617 118.15631,61.3371262 C116.659551,61.7569907 115.112247,62.0714083 113.514397,62.2803789 C111.916547,62.4893496 110.348499,62.6078036 108.810253,62.635741 C107.272007,62.6636784 105.8735,62.6268644 104.614732,62.5252991 L103.152938,62.4073522 C103.366476,65.4994294 104.588202,67.9463787 106.818119,69.7482002 C109.048035,71.5500217 112.274474,72.6213002 116.497435,72.9620356 C119.502235,73.204482 122.480879,73.005554 125.433369,72.3652518 C128.385859,71.7249496 131.098804,70.7274241 133.572205,69.3726753 L134.038745,69.6130558 Z M103.125653,60.8846216 L104.648356,61.0074829 C106.11015,61.1254298 107.632411,61.0539657 109.21514,60.7930907 C110.797868,60.5322157 112.247324,60.0747449 113.563509,59.4206785 C114.879693,58.7666122 116.000833,57.9194133 116.92693,56.8790821 C117.853027,55.8387508 118.388614,54.6148578 118.53369,53.2074031 C118.675313,51.8334592 118.437459,50.6654234 117.820128,49.7032958 C117.202797,48.7411682 116.021115,48.1896639 114.275083,48.0487829 C112.488446,47.9046256 110.930127,48.2266018 109.600126,49.0147115 C108.270125,49.8028213 107.152879,50.8108347 106.24839,52.0387518 C105.3439,53.2666689 104.645681,54.5788082 104.153731,55.9751698 C103.661781,57.3715314 103.358812,58.6226408 103.244823,59.7284981 L103.125653,60.8846216 Z M166.92487,64.562504 C166.683075,66.9082619 165.99159,69.0487882 164.850413,70.9840829 C163.709237,72.9193776 162.209943,74.5554607 160.352531,75.8923324 C158.495119,77.2292041 156.335528,78.2206935 153.873757,78.8668005 C151.411986,79.5129075 148.739609,79.7196523 145.856626,79.4870348 C143.298486,79.2806278 141.034717,78.7009455 139.065318,77.7479878 C137.095919,76.7950301 135.449407,75.5893613 134.125781,74.1309813 C132.802155,72.6726014 131.846991,71.0158719 131.260288,69.1607929 C130.673586,67.3057139 130.485588,65.3560942 130.696295,63.3119338 C130.872459,61.6028816 131.334377,60.0013597 132.082049,58.507368 C132.829721,57.0133764 133.799648,55.6471336 134.991829,54.4086398 C136.18401,53.170146 137.568856,52.0485662 139.146366,51.0439004 C140.723877,50.0392345 142.411977,49.1533078 144.210667,48.3861201 L144.894932,48.8974897 C143.02025,50.4019156 141.493744,52.1033823 140.315417,54.0018898 C139.137089,55.9003974 138.433936,57.9555084 138.205959,60.167223 C138.040157,61.7757427 138.166153,63.4331487 138.583948,65.139441 C139.001743,66.8457333 139.708305,68.4317197 140.703634,69.8974 C141.698962,71.3630804 143.004435,72.6003637 144.620053,73.6092498 C146.23567,74.618136 148.139824,75.2110393 150.332515,75.3879596 C151.713099,75.4993539 153.036651,75.3696197 154.303172,74.9987572 C155.569693,74.6278947 156.701214,74.0771919 157.697737,73.3466489 C158.694259,72.6161058 159.519283,71.7619092 160.172809,70.7840591 C160.826336,69.8062089 161.210093,68.7643552 161.324082,67.6584979 C161.434616,66.5861515 161.349685,65.5233757 161.069287,64.4701706 C160.788889,63.4169655 160.349312,62.4184959 159.750557,61.4747619 C159.151802,60.5310278 158.402292,59.6596038 157.502028,58.8604898 C156.601764,58.0613757 155.607336,57.3813747 154.518744,56.8204867 C153.896691,56.4999792 153.298184,56.2489506 152.723223,56.067401 C152.148261,55.8858513 151.52427,55.6834508 150.851249,55.4601995 C150.570466,55.4037546 150.27197,55.3205384 149.955763,55.2105509 C149.639555,55.1005634 149.345377,54.9754587 149.073229,54.8352367 C148.801081,54.6950146 148.573856,54.5161804 148.391554,54.2987339 C148.209253,54.0812875 148.133646,53.8217655 148.164733,53.5201681 C148.226909,52.9169732 148.547839,52.3853405 149.127522,51.92527 C149.707205,51.4651995 150.382357,51.0719638 151.152978,50.7455627 C151.923598,50.4191616 152.726188,50.1798139 153.560749,50.0275196 C154.395309,49.8752252 155.11713,49.8236503 155.726211,49.8727949 C157.797086,50.0398863 159.579424,50.6229606 161.073225,51.6220179 C162.567026,52.6210752 163.772713,53.8334123 164.690285,55.2590292 C165.607857,56.6846461 166.247677,58.2230104 166.609745,59.874122 C166.971813,61.5252337 167.076855,63.0880277 166.92487,64.562504 Z M224,76.871703 C223.104146,78.015843 222.162717,79.1056214 221.175712,80.1410382 C220.188707,81.176455 219.103854,82.0688187 217.921153,82.8181292 C216.738452,83.5674397 215.430904,84.137729 213.998507,84.5289972 C212.56611,84.9202653 210.956593,85.0438207 209.169956,84.8996634 C207.139686,84.7358483 205.435968,84.1844597 204.058802,83.2454976 C202.681636,82.3065355 201.545282,81.1166873 200.649739,79.6759531 C199.754197,78.2352189 199.081544,76.618179 198.631779,74.8248333 C198.182014,73.0314876 197.847368,71.2136409 197.627841,69.3712932 C197.408314,67.5289456 197.287711,65.7199218 197.266029,63.9442218 C197.244348,62.1685219 197.224835,60.570392 197.20749,59.149832 C196.384175,59.5902447 195.350942,60.478326 194.107793,61.814076 C192.864643,63.149826 191.576148,64.7268913 190.242307,66.545272 C188.908466,68.3636527 187.608111,70.3536829 186.341242,72.5153626 C185.074372,74.6770423 184.003833,76.8207736 183.129623,78.9465565 C182.959448,79.4058792 182.716486,79.8762238 182.400738,80.3575902 C182.08499,80.8389567 181.712651,81.2735201 181.283722,81.6612806 C180.854793,82.049041 180.361714,82.3640463 179.804483,82.6062964 C179.247252,82.8485465 178.643793,82.9434612 177.994107,82.8910403 C176.938367,82.8058565 176.208103,82.4428284 175.803317,81.801956 C175.398531,81.1610837 175.134347,80.4470822 175.010767,79.6599517 C174.271895,75.3090639 173.869322,71.1711533 173.803048,67.2462199 C173.736774,63.3212865 173.903981,59.4151919 174.304669,55.5279359 C174.401386,54.5896328 174.678026,53.7925576 175.134589,53.1367106 C175.591151,52.4808635 176.167592,51.9529523 176.86391,51.5529769 C177.560228,51.1530016 178.366273,50.8801431 179.282044,50.7344013 C180.197815,50.5886596 181.142965,50.5551044 182.117495,50.6337356 C182.239311,50.6435645 182.432186,50.659127 182.696121,50.6804229 C182.960057,50.7017189 183.21125,50.7473289 183.449701,50.817253 C183.688152,50.887177 183.883407,50.9789579 184.035466,51.0925956 C184.187525,51.2062333 184.234616,51.345191 184.17674,51.5094688 C182.668498,55.8142033 181.700658,60.2385672 181.273218,64.7825606 C180.845778,69.326554 180.680106,73.7142733 180.7762,77.9457186 C181.39557,76.3062166 182.251434,74.457717 183.343792,72.40022 C184.43615,70.342723 185.672354,68.2799376 187.052404,66.2118639 C188.432454,64.1437902 189.903655,62.1844397 191.466007,60.3338124 C193.028359,58.4831851 194.589214,56.9449903 196.148571,55.7192277 C196.904492,55.1382192 197.661066,54.6501844 198.418293,54.2551236 C199.175519,53.8600627 200.082002,53.7051242 201.137742,53.790308 C201.746823,53.8394526 202.244028,53.9809388 202.629357,54.2147668 C203.014686,54.4485948 203.323773,54.7269555 203.556621,55.0498489 C203.789468,55.3727423 203.957089,55.7326098 204.059485,56.1294513 C204.16188,56.5262929 204.234685,56.9122995 204.2779,57.2874712 C204.380755,58.2756667 204.454249,59.5487042 204.498382,61.1065838 C204.542516,62.6644633 204.627044,64.3269708 204.751965,66.094106 C204.876887,67.8612413 205.072005,69.6424878 205.337318,71.4378455 C205.602632,73.2332033 206.007032,74.8708358 206.55052,76.3507431 C207.094008,77.8306503 207.806385,79.0623158 208.687651,80.0457393 C209.568917,81.0291629 210.679539,81.5749337 212.019517,81.6830517 C213.115863,81.7715118 214.199889,81.6815829 215.271596,81.4132649 C216.343302,81.1449469 217.374615,80.7720011 218.365534,80.2944274 C219.356452,79.8168537 220.295098,79.2505885 221.181472,78.5956317 C222.067845,77.940675 222.872144,77.2875434 223.594369,76.6362368 L224,76.871703 Z" id="Shape"></path>
            </g>
            <path d="M50.524,91.017 L49.981,93.963 L48.81,99.827 L47.541,105.661 C47.3878756,106.358128 47.4785273,106.436226 47.541,106.387 C47.6527375,106.298955 47.8379658,105.720825 47.541,106.96 C50.222,106.174 48.721,106.993 51.393,106.387 C54.053,105.769 56.734,105.26 59.424,104.774 C62.114,104.288 64.826,103.924 67.54,103.538 C70.266,103.247 72.992,102.927 75.743,102.753 C78.485,102.521 81.255,102.502 84.02,102.403 C86.801,102.457 89.573,102.435 92.374,102.685 C93.772,102.807 95.167,102.822 96.569,103.052 L100.774,103.639 C102.176,103.864 103.579,104.213 104.981,104.498 C105.682,104.658 106.382,104.785 107.079,104.992 L109.166,105.651 L111.25,106.316 L112.192,106.623 L113.142,106.96 C114.465,107.444 115.529,107.75 116.723,108.137 C119.135,108.872 121.607,109.445 124.104,109.931 C126.598,110.436 129.129,110.817 131.681,111.072 C134.231,111.353 136.801,111.535 139.379,111.603 C141.958,111.693 144.547,111.673 147.131,111.541 C149.718,111.44 152.299,111.202 154.862,110.875 C157.427,110.551 159.965,110.076 162.428,109.45 C163.654,109.13 164.864,108.758 165.998,108.322 C167.12,107.893 167.21,108.090381 167.903,107.515381 L167.059,105.101 L165.483,101.381 C164.959,100.14 164.425,98.904 163.93,97.647 C163.427,96.395 162.913,95.148 162.436,93.881 C163.26,94.956 164.047,96.05 164.845,97.139 C165.65,98.224 166.418,99.329 167.194,100.43 L169.52,103.734 L172.436,108.034 L171.569,109.092 C170.423,110.492 169.162,111.323 167.903,112.112 C166.641,112.894 165.34,113.498 164.03,114.061 C161.412,115.186 158.729,116.039 156.021,116.746 C150.599,118.144 145.056,118.937 139.467,119.223 C136.672,119.346 133.867,119.356 131.058,119.233 C128.251,119.095 125.443,118.819 122.643,118.4 C119.848,117.961 117.062,117.391 114.306,116.647 C112.926,116.266 111.41,115.819 110.207,115.385 L109.253,115.059 L108.938,114.951 L108.277,114.751 L106.515,114.214 L104.755,113.67 C104.165,113.495 103.534,113.405 102.928,113.256 C101.7,112.998 100.496,112.676 99.248,112.463 L95.475,111.899 C94.85,111.788 94.212,111.728 93.57,111.67 L91.651,111.478 C89.104,111.156 86.495,111.136 83.908,110.958 C81.3,110.92 78.694,110.812 76.069,110.888 C73.447,110.865 70.817,110.998 68.183,111.081 C65.548,111.212 62.909,111.346 60.269,111.553 C57.626,111.721 54.987,111.979 52.344,112.225 C49.713,112.482 47.037,112.777 44.463,113.115 L40.241,113.67 L41.648,110.05 C42.367,108.199 43.136,106.362 43.892,104.521 L46.17,99.003 L48.547,93.515 L49.778,90.784 C50.187,89.873 50.604,88.965 51.038,88.062 C50.88,89.052 50.706,90.036 50.524,91.017 Z" id="Fill-52"></path>
            <path d="M64.557,76.107 C64.557,76.107 64.023,76.553 63.022,77.389 C62.036,78.224 60.671,79.536 58.964,81.229 C57.253,82.925 55.299,85.105 52.8,87.469 C50.309,89.817 47.317,92.539 43.168,94.531 L42.977,94.628 L42.881,94.676 L42.832,94.701 C42.912,94.674 42.67,94.764 42.679,94.761 L42.318,94.914 L41.588,95.217 L40.846,95.52 L39.943,95.804 C38.704,96.219 37.524,96.457 36.288,96.699 C33.813,97.128 31.198,97.16 28.546,96.886 C23.252,96.299 17.768,94.276 13.061,90.62 C12.488,90.144 11.9,89.68 11.337,89.18 L10.518,88.394 L10.11,87.996 L9.906,87.795 L9.856,87.745 C9.796,87.679 9.919,87.823 9.708,87.584 L9.626,87.491 C9.186,86.987 8.764,86.531 8.304,85.983 C7.814,85.346 7.301,84.693 6.84,84.045 C5.085,81.542 3.678,78.766 2.678,75.841 C0.639,69.997 0.169,63.585 1.259,57.4 C2.399,51.2 5.141,45.423 8.853,40.666 C10.694,38.269 12.776,36.113 15.019,34.22 C17.256,32.322 19.636,30.66 22.124,29.293 C22.732,28.93 23.378,28.636 23.999,28.309 L24.468,28.071 L24.958,27.842 L25.847,27.439 C27.189,26.838 28.432,26.376 29.732,25.945 C32.312,25.105 34.904,24.494 37.463,24.159 C40.024,23.838 42.539,23.729 44.959,23.887 L45.411,23.914 C45.411,23.914 45.611,23.922 45.551,23.921 L45.603,23.927 L45.707,23.938 L45.914,23.961 L46.737,24.052 L47.557,24.145 L48.46,24.287 C49.676,24.458 50.767,24.718 51.851,24.975 C54,25.558 55.998,26.27 57.827,27.087 C59.633,27.958 61.302,28.842 62.773,29.825 C65.758,31.716 67.991,33.836 69.67,35.663 C71.363,37.491 72.411,39.14 73.133,40.228 C73.213,40.359 73.327,40.48 73.38,40.696 C73.431,40.939 73.337,41.104 73.255,41.219 C73.083,41.447 72.907,41.56 72.791,41.674 C72.656,41.787 72.666,41.872 72.764,41.912 C72.843,41.941 72.884,41.957 72.884,41.957 C72.884,41.957 72.84,41.952 72.753,41.944 C72.715,41.929 72.642,41.922 72.61,41.833 C72.59,41.737 72.645,41.669 72.684,41.59 C72.773,41.441 72.913,41.272 72.99,41.072 C73.058,40.842 73.021,40.826 72.731,40.554 C71.795,39.658 70.383,38.398 68.475,36.996 C66.555,35.61 64.094,34.136 61.136,32.855 C58.18,31.572 54.689,30.571 50.865,30.098 C49.906,30.022 48.917,29.897 47.984,29.891 L47.272,29.862 L46.457,29.871 L45.629,29.883 L45.421,29.942 L45.317,30 L45.265,30 C45.17,30 45.335,29.948 45.3,29.949 L44.917,29.946 C42.871,30.062 40.77,30.341 38.658,30.844 C36.549,31.356 34.418,32.017 32.328,32.916 C31.298,33.367 30.215,33.869 29.264,34.368 L28.439,34.809 L28.228,34.923 L28.123,34.98 L28.07,35.008 C28.153,34.966 28.066,35.012 28.073,35.01 L27.699,35.235 C27.206,35.543 26.689,35.813 26.209,36.151 C24.249,37.431 22.353,38.876 20.606,40.515 C18.865,42.158 17.255,43.968 15.829,45.915 C13.008,49.828 10.931,54.316 10.113,58.999 C9.239,63.68 9.572,68.619 10.952,73.095 C11.66,75.328 12.618,77.453 13.822,79.38 L14.686,80.674 C15.051,81.159 15.5,81.696 15.9,82.202 L16.926,83.332 C17.312,83.724 17.725,84.092 18.119,84.476 C21.426,87.404 25.507,89.358 29.574,90.215 C31.608,90.655 33.648,90.825 35.611,90.732 C36.583,90.662 37.58,90.584 38.417,90.416 L39.075,90.312 L39.841,90.104 L40.604,89.897 L40.983,89.797 C41.023,89.784 40.812,89.862 40.921,89.822 L40.962,89.808 L41.045,89.78 L41.21,89.723 C42.993,89.175 44.653,88.368 46.228,87.518 C47.803,86.663 49.279,85.743 50.646,84.804 C53.372,82.925 55.794,81.194 57.838,79.85 C59.87,78.481 61.582,77.565 62.745,76.956 C63.916,76.38 64.557,76.107 64.557,76.107" id="Fill-53"></path>
            <path d="M59.95,30.102 C59.95,30.102 60.024,29.877 60.166,29.441 C60.319,29.008 60.496,28.351 60.822,27.523 C61.448,25.852 62.412,23.405 64.062,20.471 C65.692,17.534 67.995,14.075 71.388,10.671 C74.792,7.307 79.285,3.932 85.192,1.965 C91.073,0.075 98.103,-0.209 105.039,2.156 C108.492,3.335 111.889,5.269 114.805,8.008 C116.256,9.353 117.579,11.014 118.634,12.675 C119.749,14.444 120.585,16.18 121.335,17.949 C122.832,21.46 123.846,24.945 125.139,28.008 C126.426,31.076 127.943,33.635 130.007,35.187 C132.048,36.774 134.653,37.468 137.663,37.389 C140.661,37.317 143.897,36.44 147.023,35.187 C153.26,32.671 159.57,27.978 167.585,25.429 C169.577,24.789 171.692,24.319 173.864,24.127 C174.401,24.057 174.95,24.043 175.497,24.026 L176.315,24 L177.115,24.014 L177.896,24.05 L178.781,24.115 C179.323,24.18 179.866,24.233 180.4,24.329 C184.702,25.017 188.604,26.804 191.882,29.079 C195.184,31.349 197.929,34.102 200.193,37.057 C202.48,40.005 204.256,43.176 205.615,46.419 C206.948,49.678 207.88,52.979 208.294,56.259 C208.538,57.89 208.607,59.518 208.635,61.107 C208.607,62.701 208.519,64.263 208.282,65.777 C208.082,67.292 207.734,68.756 207.327,70.157 C207.122,70.857 206.857,71.532 206.628,72.204 C206.336,72.923 206.144,73.425 205.845,74.087 C204.698,76.646 203.394,78.822 201.958,80.77 C199.094,84.649 195.858,87.316 193.1,89.231 C190.32,91.143 187.923,92.253 186.288,92.955 C184.64,93.64 183.722,93.881 183.722,93.881 C183.722,93.881 184.579,93.473 186.073,92.539 C187.57,91.618 189.69,90.129 192.091,87.953 C194.498,85.794 197.104,82.825 199.323,79.033 C200.421,77.151 201.398,74.973 202.119,72.731 C202.297,72.197 202.497,71.453 202.645,70.928 C202.765,70.326 202.92,69.729 203.018,69.111 C203.215,67.878 203.395,66.617 203.42,65.313 C203.636,60.119 202.334,54.45 199.658,49.159 C198.287,46.533 196.605,43.959 194.569,41.651 C192.535,39.342 190.176,37.263 187.57,35.647 C184.964,34.033 182.095,32.942 179.189,32.574 C178.826,32.519 178.461,32.503 178.096,32.469 L177.369,32.442 L176.683,32.223 C176.598,32 175.9,32.384 175.9,32.384 C175.531,32.411 175.162,32.483 174.789,32.551 C173.305,32.745 171.797,33.132 170.269,33.66 C167.208,34.699 164.119,36.337 160.893,38.129 C159.225,39.045 157.554,39.969 155.881,40.888 L154.632,41.55 L153.231,42.253 C152.303,42.7 151.36,43.124 150.398,43.518 C146.547,45.065 142.389,46.209 137.863,46.316 C135.61,46.355 133.254,46.132 130.953,45.416 C129.804,45.065 128.674,44.605 127.596,44.038 C127.322,43.886 127.075,43.763 126.781,43.583 L125.927,43.047 L125.357,42.647 L124.917,42.316 L124.563,42.036 C122.679,40.525 121.159,38.669 119.993,36.785 C118.827,34.894 117.988,32.967 117.29,31.122 C115.911,27.419 115,23.964 113.885,20.906 C113.337,19.392 112.7,17.935 112.025,16.729 C111.281,15.425 110.496,14.339 109.526,13.293 C107.613,11.233 105.202,9.631 102.604,8.521 C97.391,6.278 91.567,5.941 86.578,7.03 C85.968,7.162 85.418,7.289 84.712,7.504 C84.15,7.665 83.524,7.908 82.939,8.101 C81.765,8.54 80.633,9.032 79.555,9.578 C77.391,10.657 75.431,11.923 73.688,13.268 C70.24,16.008 67.546,18.896 65.566,21.467 C63.593,24.045 62.174,26.217 61.297,27.74 C60.419,29.28 59.95,30.102 59.95,30.102 L24.8125,34.8359375" id="Fill-54"></path>
            <path d="M97.44,70.084 C97.44,70.084 97.77,69.991 98.39,69.816 C99.016,69.672 99.907,69.36 101.093,69.152 C102.283,68.955 103.761,68.645 105.461,68.584 C105.887,68.558 106.328,68.511 106.784,68.501 C107.24,68.503 107.71,68.504 108.192,68.506 C109.164,68.48 110.177,68.59 111.244,68.701 C112.319,68.77 113.401,69.057 114.552,69.253 C115.119,69.38 115.684,69.554 116.266,69.712 C116.851,69.863 117.433,70.049 118.011,70.267 C120.363,71.066 122.723,72.217 125.005,73.576 C127.296,74.928 129.519,76.483 131.673,78.092 C133.834,79.69 135.931,81.343 138.06,82.865 C140.171,84.411 142.309,85.842 144.477,87.089 C146.659,88.307 148.862,89.371 151.08,90.231 C153.315,91.027 155.52,91.75 157.695,92.186 C158.236,92.304 158.768,92.441 159.3,92.542 C159.835,92.629 160.362,92.715 160.881,92.8 C161.401,92.884 161.911,92.991 162.418,93.054 C162.927,93.111 163.426,93.167 163.916,93.221 C164.896,93.353 165.841,93.451 166.748,93.501 C167.653,93.568 168.517,93.651 169.332,93.695 C170.958,93.706 172.398,93.825 173.582,93.825 C174.764,93.808 175.706,93.848 176.348,93.851 C176.993,93.871 177.337,93.881 177.337,93.881 C177.337,93.881 177.011,93.989 176.402,94.192 C175.788,94.378 174.891,94.686 173.731,95.01 C172.572,95.335 171.142,95.646 169.488,95.986 C167.826,96.233 165.938,96.609 163.841,96.698 C162.794,96.782 161.699,96.834 160.558,96.808 C159.987,96.801 159.406,96.794 158.817,96.786 C158.227,96.76 157.629,96.698 157.02,96.653 C154.582,96.486 152.023,95.98 149.416,95.286 C146.825,94.53 144.21,93.501 141.699,92.204 C139.179,90.919 136.808,89.341 134.538,87.72 C132.287,86.067 130.147,84.354 128.107,82.682 C126.057,81.025 124.081,79.435 122.118,78.027 C120.154,76.621 118.211,75.376 116.259,74.412 C115.306,73.867 114.309,73.517 113.372,73.078 C112.403,72.741 111.479,72.33 110.545,72.091 C110.081,71.952 109.626,71.816 109.181,71.683 C108.735,71.551 108.285,71.482 107.853,71.369 C107.416,71.266 106.991,71.165 106.578,71.068 C106.161,70.981 105.751,70.933 105.354,70.866 C103.761,70.587 102.367,70.464 101.192,70.335 C100.014,70.237 99.061,70.203 98.424,70.157 C97.782,70.11 97.44,70.084 97.44,70.084" id="Fill-55"></path>
            <path d="M48.881,86.387 C48.881,86.387 49.094,86.264 49.493,86.034 C49.924,85.78 50.505,85.493 51.261,85.106 C52.021,84.757 52.934,84.305 54.007,83.878 C55.067,83.412 56.293,82.981 57.62,82.493 C58.966,82.064 60.409,81.553 61.972,81.155 C62.751,80.949 63.551,80.737 64.368,80.521 C65.193,80.343 66.037,80.161 66.894,79.977 C68.6,79.572 70.399,79.352 72.207,79.05 C74.023,78.793 75.881,78.644 77.727,78.448 C79.585,78.371 81.437,78.246 83.26,78.213 C85.086,78.237 86.879,78.232 88.611,78.282 C90.339,78.4 92.01,78.514 93.594,78.622 C95.174,78.748 96.658,78.993 98.029,79.152 C99.4,79.328 100.658,79.467 101.756,79.706 C102.858,79.915 103.819,80.096 104.61,80.246 C106.189,80.545 107.092,80.716 107.092,80.716 C107.092,80.716 106.179,80.607 104.582,80.416 C103.785,80.32 102.817,80.205 101.707,80.072 C100.601,79.909 99.339,79.856 97.967,79.773 C96.594,79.709 95.113,79.566 93.541,79.548 C91.971,79.548 90.315,79.547 88.602,79.547 C86.891,79.615 85.127,79.741 83.338,79.838 C81.553,79.992 79.748,80.24 77.943,80.437 C76.153,80.752 74.358,81.018 72.614,81.388 C70.879,81.802 69.156,82.13 67.538,82.634 C66.725,82.868 65.926,83.098 65.144,83.322 C64.375,83.583 63.622,83.839 62.889,84.087 C61.42,84.569 60.08,85.151 58.832,85.643 C57.608,86.192 56.478,86.675 55.519,87.179 C54.54,87.647 53.733,88.121 53.055,88.488 C52.405,88.879 51.873,89.19 51.576,89.395 C51.243,89.619 51.066,89.738 51.066,89.738 L48.881,86.387" id="Fill-56"></path>
        </g>
    </g>
</svg>